<?xml version="1.0" standalone="no"?>
<svg width="64" height="64" viewBox="0 0 384 384" version="1.1" xmlns="http://www.w3.org/2000/svg">
  <path d="M192 336c-97 0 -176 -62 -176 -138c0 -26 10 -51 27 -73c0 -1 0 -2 1 -3s2 -1 2 -2c4 -6 6 -13 6 -20c0 -3 1 -3 -13 -47l39 17v0c2 1 10 4 11 4h1v0c5 2 10 3 16 3c5 0 9 -1 14 -2l1 -1h2c19 -6 41 -10 70 -10c48 0 92 15 125 40c32 25 50 58 50 94 c0 76 -79 138 -176 138zM192 352v0c106 0 192 -69 192 -154s-85 -150 -191 -150c-27 0 -52 3 -75 11h-2v0c-3 1 -6 2 -10 2s-9 -1 -12 -2h1h-1c-1 0 -9 -4 -10 -4l-50 -22l-2 -1h-3h-3c-6 1 -8 6 -7 10v0s17 57 17 58c0 4 -1 8 -3 11v0v0v0l1 -1l-4 4c-19 24 -30 53 -30 84 c0 85 86 154 192 154z" transform="matrix(1,0,0,-1,0,384)"/>
</svg>