<?xml version="1.0" standalone="no"?>
<svg width="64" height="64" viewBox="0 0 320 384" version="1.1" xmlns="http://www.w3.org/2000/svg">
  <path d="M160 210c-10 0 -18 -8 -18 -18s8 -18 18 -18s18 8 18 18s-8 18 -18 18zM160 224v0c18 0 32 -14 32 -32s-14 -32 -32 -32s-32 14 -32 32s14 32 32 32zM32 210c-10 0 -18 -8 -18 -18s8 -18 18 -18s18 8 18 18s-8 18 -18 18zM32 224v0c18 0 32 -14 32 -32s-14 -32 -32 -32 s-32 14 -32 32s14 32 32 32zM288 210c-10 0 -18 -8 -18 -18s8 -18 18 -18s18 8 18 18s-8 18 -18 18zM288 224v0c18 0 32 -14 32 -32s-14 -32 -32 -32s-32 14 -32 32s14 32 32 32z" transform="matrix(1,0,0,-1,0,384)"/>
</svg>